<svg viewBox="40.5 0 999.0000000000003 1079.9999999999998" fill="none" xmlns="http://www.w3.org/2000/svg" xmlns:xlink="http://www.w3.org/1999/xlink" overflow="visible" width="999.0000000000003px" height="1079.9999999999998px"><g id="Master/Stickers/Open Box"><g id="Open-Box"><path id="Fill-1" fill-rule="evenodd" clip-rule="evenodd" d="M277.93 1080H849.492V672.487H277.93V1080Z" fill="#910F30"/><path id="Fill-2" fill-rule="evenodd" clip-rule="evenodd" d="M277.93 1080H536.802V672.487H277.93V1080Z" fill="#D4183F"/><path id="Fill-3" fill-rule="evenodd" clip-rule="evenodd" d="M339.453 1050.53H447.091V1001.84H339.453V1050.53Z" fill="#910F30"/><path id="Fill-4" fill-rule="evenodd" clip-rule="evenodd" d="M452.819 794.228H193.368L277.35 671.2H536.802L452.819 794.228Z" fill="#ED375B"/><path id="Fill-5" fill-rule="evenodd" clip-rule="evenodd" d="M623.104 794.228H932.785L849.057 671.2H539.357L623.104 794.228Z" fill="#ED375B"/><g id="Group-95"><path id="Fill-6" fill-rule="evenodd" clip-rule="evenodd" d="M868.779 233.997C860.512 232.463 851.976 233.415 844.251 236.733C836.526 240.051 829.958 245.585 825.378 252.635C820.798 259.686 818.412 267.936 818.521 276.343C818.63 284.75 821.23 292.936 825.991 299.865C830.753 306.794 837.463 312.156 845.271 315.272C853.08 318.388 861.637 319.118 869.861 317.37C878.085 315.623 885.606 311.475 891.473 305.453C897.34 299.431 901.289 291.804 902.821 283.537C904.87 272.454 902.436 261.011 896.053 251.722C889.669 242.432 879.86 236.057 868.779 233.997V233.997ZM850.905 330.65C840.055 328.647 830.044 323.473 822.136 315.78C814.227 308.087 808.778 298.221 806.477 287.431C804.176 276.641 805.126 265.411 809.209 255.161C813.291 244.911 820.321 236.102 829.41 229.849C838.499 223.595 849.239 220.177 860.271 220.027C871.303 219.878 882.131 223.003 891.386 229.008C900.642 235.014 907.908 243.629 912.267 253.764C916.625 263.9 917.88 275.1 915.873 285.948C913.168 300.483 904.81 313.351 892.631 321.731C880.452 330.111 865.446 333.318 850.905 330.65" fill="white"/><path id="Fill-8" fill-rule="evenodd" clip-rule="evenodd" d="M397.587 163.374C396.458 161.311 395.967 158.958 396.175 156.616C396.383 154.273 397.282 152.044 398.757 150.212C400.232 148.38 402.218 147.026 404.462 146.323C406.707 145.619 409.109 145.596 411.366 146.258C413.623 146.92 415.633 148.237 417.142 150.041C418.651 151.846 419.591 154.057 419.843 156.396C420.095 158.734 419.647 161.095 418.557 163.179C417.468 165.264 415.784 166.978 413.719 168.105C410.952 169.612 407.699 169.959 404.675 169.073C401.652 168.186 399.103 166.137 397.587 163.374" fill="#F26037"/><path id="Fill-10" fill-rule="evenodd" clip-rule="evenodd" d="M853.607 518.064C853.177 520.375 852.072 522.508 850.431 524.191C848.79 525.875 846.686 527.034 844.387 527.523C842.087 528.011 839.693 527.807 837.509 526.936C835.326 526.064 833.449 524.565 832.117 522.628C830.785 520.691 830.057 518.402 830.026 516.051C829.994 513.7 830.66 511.392 831.939 509.42C833.219 507.447 835.054 505.898 837.214 504.969C839.373 504.039 841.759 503.77 844.071 504.197C847.174 504.774 849.92 506.558 851.708 509.158C853.496 511.758 854.179 514.961 853.607 518.064" fill="#F26037"/><path id="Fill-12" fill-rule="evenodd" clip-rule="evenodd" d="M529.207 414.65C528.774 416.956 527.667 419.082 526.026 420.76C524.386 422.438 522.284 423.592 519.988 424.076C517.692 424.561 515.304 424.354 513.125 423.482C510.947 422.61 509.075 421.112 507.747 419.177C506.419 417.242 505.696 414.957 505.666 412.611C505.635 410.265 506.301 407.962 507.579 405.994C508.857 404.025 510.689 402.48 512.845 401.552C515 400.625 517.382 400.357 519.69 400.782C521.225 401.068 522.689 401.653 523.999 402.505C525.308 403.356 526.437 404.457 527.321 405.745C528.204 407.033 528.826 408.482 529.149 410.01C529.473 411.538 529.493 413.114 529.207 414.65" fill="#D4183F"/><path id="Fill-14" fill-rule="evenodd" clip-rule="evenodd" d="M767.232 163.483C767.015 164.638 766.461 165.703 765.639 166.543C764.818 167.383 763.766 167.962 762.617 168.205C761.467 168.447 760.271 168.344 759.18 167.908C758.089 167.472 757.152 166.722 756.486 165.753C755.821 164.784 755.457 163.64 755.442 162.465C755.427 161.29 755.76 160.137 756.4 159.151C757.039 158.165 757.957 157.391 759.036 156.926C760.116 156.462 761.309 156.327 762.464 156.54C764.016 156.83 765.389 157.724 766.283 159.026C767.176 160.327 767.518 161.93 767.232 163.483" fill="#D4183F"/><path id="Fill-16" fill-rule="evenodd" clip-rule="evenodd" d="M782.839 48.1593C781.832 53.5802 779.241 58.581 775.393 62.5294C771.545 66.4778 766.611 69.1965 761.218 70.3417C755.825 71.4869 750.213 71.0072 745.092 68.9633C739.972 66.9194 735.572 63.4031 732.45 58.8589C729.327 54.3147 727.622 48.9467 727.55 43.4336C727.479 37.9205 729.044 32.5099 732.047 27.8859C735.05 23.2619 739.356 19.6321 744.421 17.4556C749.487 15.279 755.085 14.6533 760.506 15.6576C767.776 17.0093 774.211 21.1919 778.399 27.2863C782.586 33.3807 784.184 40.8882 782.839 48.1593" fill="white"/><path id="Fill-18" fill-rule="evenodd" clip-rule="evenodd" d="M505.986 220.057C507.852 220.415 509.622 221.16 511.183 222.243C512.744 223.326 514.061 224.724 515.049 226.347L518.204 231.55C518.836 232.588 519.79 233.391 520.921 233.837C522.052 234.284 523.297 234.349 524.469 234.023C525.64 233.696 526.672 232.997 527.41 232.03C528.147 231.064 528.549 229.883 528.554 228.667V222.595C528.566 220.278 529.172 218.004 530.315 215.988C531.457 213.973 533.098 212.284 535.079 211.084L540.264 207.93C541.31 207.302 542.12 206.349 542.573 205.216C543.025 204.083 543.095 202.834 542.77 201.658C542.445 200.483 541.745 199.446 540.775 198.706C539.805 197.966 538.62 197.564 537.4 197.562H531.327C529.011 197.548 526.737 196.94 524.722 195.798C522.707 194.656 521.018 193.016 519.816 191.036L516.862 185.779C516.23 184.742 515.277 183.94 514.148 183.493C513.019 183.046 511.775 182.98 510.605 183.304C509.435 183.627 508.403 184.324 507.664 185.287C506.925 186.251 506.521 187.429 506.512 188.643V194.716C506.496 197.032 505.888 199.305 504.746 201.32C503.604 203.334 501.965 205.023 499.986 206.226L494.802 209.398C493.765 210.03 492.962 210.983 492.515 212.112C492.069 213.241 492.002 214.485 492.326 215.655C492.65 216.825 493.346 217.858 494.309 218.597C495.273 219.335 496.452 219.74 497.666 219.749H503.738C504.546 219.764 505.352 219.842 506.149 219.985L505.986 220.057ZM520.487 241.973C518.612 241.627 516.833 240.884 515.27 239.792C513.706 238.701 512.395 237.287 511.424 235.646L508.269 230.462C507.777 229.646 507.084 228.971 506.256 228.501C505.427 228.031 504.491 227.783 503.538 227.779H497.466C494.509 227.751 491.642 226.76 489.298 224.957C486.954 223.154 485.261 220.637 484.474 217.787C483.688 214.936 483.851 211.907 484.939 209.157C486.027 206.408 487.981 204.087 490.505 202.546L495.689 199.374C496.501 198.879 497.172 198.184 497.638 197.356C498.105 196.528 498.351 195.594 498.354 194.643V188.571C498.372 185.611 499.355 182.737 501.154 180.386C502.953 178.036 505.47 176.337 508.322 175.547C511.175 174.757 514.208 174.921 516.96 176.011C519.712 177.102 522.033 179.062 523.569 181.592L526.723 186.776C527.216 187.591 527.91 188.265 528.738 188.735C529.567 189.204 530.502 189.454 531.454 189.459H537.527C540.485 189.48 543.356 190.466 545.704 192.266C548.052 194.067 549.748 196.584 550.535 199.436C551.322 202.288 551.157 205.319 550.066 208.069C548.974 210.819 547.017 213.138 544.488 214.673V214.673L539.303 217.828C538.492 218.323 537.821 219.018 537.355 219.846C536.888 220.674 536.642 221.608 536.639 222.559V228.631C536.662 231.601 535.695 234.493 533.889 236.851C532.083 239.208 529.542 240.896 526.669 241.646C524.64 242.218 522.507 242.317 520.433 241.936L520.487 241.973Z" fill="#E64360"/><path id="Fill-20" fill-rule="evenodd" clip-rule="evenodd" d="M591.98 625.612C592.824 625.203 593.747 624.98 594.685 624.958C595.623 624.937 596.555 625.116 597.418 625.485L600.173 626.627C600.724 626.861 601.337 626.908 601.918 626.76C602.498 626.613 603.014 626.279 603.387 625.809C603.759 625.34 603.968 624.762 603.98 624.163C603.992 623.564 603.807 622.978 603.454 622.494L601.732 620.065C601.068 619.142 600.653 618.063 600.526 616.933C600.399 615.803 600.564 614.659 601.007 613.612L602.149 610.857C602.377 610.308 602.421 609.699 602.272 609.124C602.124 608.548 601.793 608.036 601.328 607.665C600.863 607.295 600.29 607.085 599.696 607.069C599.102 607.053 598.518 607.231 598.034 607.576L595.605 609.298C594.683 609.965 593.604 610.382 592.473 610.509C591.343 610.636 590.199 610.469 589.152 610.023L586.396 608.881C585.845 608.647 585.232 608.6 584.652 608.747C584.071 608.895 583.555 609.229 583.183 609.698C582.81 610.167 582.603 610.746 582.59 611.345C582.578 611.944 582.762 612.53 583.115 613.014L584.838 615.443C585.506 616.364 585.925 617.443 586.052 618.574C586.179 619.705 586.01 620.849 585.563 621.896L584.421 624.651C584.192 625.2 584.149 625.808 584.297 626.384C584.445 626.96 584.776 627.472 585.241 627.843C585.706 628.213 586.279 628.422 586.873 628.439C587.468 628.455 588.051 628.277 588.536 627.932L590.964 626.21C591.288 625.976 591.634 625.776 591.998 625.612H591.98ZM604.052 630.18C603.199 630.571 602.272 630.773 601.333 630.773C600.395 630.773 599.467 630.571 598.614 630.18L595.859 629.02C595.428 628.84 594.959 628.774 594.495 628.827C594.032 628.881 593.59 629.054 593.213 629.328L590.783 631.05C589.6 631.894 588.174 632.329 586.722 632.29C585.27 632.252 583.869 631.741 582.733 630.836C581.596 629.931 580.785 628.68 580.423 627.273C580.06 625.866 580.165 624.38 580.723 623.038L581.883 620.283C582.063 619.852 582.129 619.383 582.075 618.919C582.021 618.455 581.849 618.014 581.575 617.636L579.853 615.207C579.009 614.024 578.574 612.599 578.613 611.146C578.651 609.694 579.162 608.293 580.067 607.157C580.972 606.02 582.223 605.209 583.629 604.847C585.036 604.484 586.523 604.589 587.865 605.147L590.62 606.307C591.051 606.487 591.52 606.553 591.984 606.499C592.448 606.445 592.889 606.273 593.267 605.999L595.696 604.276C596.864 603.406 598.29 602.953 599.745 602.989C601.201 603.025 602.603 603.549 603.726 604.476C604.881 605.37 605.705 606.623 606.07 608.038C606.434 609.452 606.317 610.948 605.738 612.289L604.578 615.044C604.398 615.474 604.331 615.944 604.385 616.408C604.439 616.871 604.612 617.313 604.886 617.69L606.608 620.119C607.479 621.29 607.933 622.719 607.897 624.178C607.861 625.637 607.337 627.042 606.409 628.168C605.762 628.976 604.945 629.632 604.016 630.089L604.052 630.18Z" fill="#D4183F"/><path id="Fill-22" fill-rule="evenodd" clip-rule="evenodd" d="M699.6 572.608C700.042 570.247 700.978 568.006 702.346 566.032C703.714 564.058 705.484 562.395 707.539 561.152L714.083 557.182C715.383 556.38 716.388 555.177 716.945 553.754C717.503 552.332 717.582 550.767 717.174 549.294C716.765 547.822 715.889 546.523 714.678 545.592C713.466 544.66 711.985 544.148 710.457 544.131H702.808C699.886 544.12 697.015 543.355 694.475 541.91C691.935 540.465 689.81 538.389 688.307 535.883L684.337 529.339C683.539 528.035 682.337 527.025 680.914 526.465C679.492 525.904 677.925 525.823 676.452 526.233C674.978 526.642 673.679 527.521 672.75 528.736C671.821 529.951 671.313 531.435 671.304 532.965V540.614C671.286 543.535 670.518 546.403 669.073 548.942C667.629 551.481 665.557 553.607 663.056 555.116L656.512 559.086C655.212 559.888 654.208 561.091 653.65 562.514C653.093 563.936 653.012 565.501 653.421 566.973C653.83 568.445 654.706 569.745 655.917 570.676C657.128 571.607 658.61 572.12 660.137 572.137H667.769C670.691 572.15 673.56 572.915 676.1 574.36C678.64 575.805 680.766 577.88 682.27 580.385L686.222 586.929C687.017 588.242 688.219 589.259 689.645 589.826C691.071 590.392 692.644 590.476 694.123 590.065C695.602 589.655 696.905 588.771 697.835 587.55C698.765 586.33 699.27 584.838 699.273 583.303V575.654C699.284 574.637 699.387 573.624 699.581 572.626L699.6 572.608ZM727.297 554.481C726.848 556.827 725.904 559.051 724.529 561.004C723.154 562.958 721.379 564.596 719.322 565.811L712.778 569.78C711.75 570.397 710.898 571.268 710.304 572.309C709.711 573.351 709.395 574.527 709.388 575.726V583.376C709.346 587.095 708.095 590.7 705.823 593.646C703.551 596.591 700.382 598.717 696.795 599.702C693.208 600.687 689.397 600.477 685.939 599.105C682.482 597.732 679.565 595.272 677.63 592.095L673.66 585.551C673.04 584.526 672.168 583.677 671.128 583.084C670.087 582.491 668.912 582.173 667.715 582.161H660.065C656.341 582.118 652.732 580.864 649.784 578.589C646.836 576.314 644.71 573.141 643.725 569.549C642.74 565.958 642.951 562.144 644.326 558.683C645.701 555.222 648.165 552.303 651.346 550.366L657.889 546.397C658.915 545.778 659.765 544.906 660.359 543.865C660.952 542.824 661.269 541.649 661.279 540.451V532.801C661.321 529.082 662.572 525.477 664.844 522.531C667.116 519.586 670.286 517.46 673.873 516.475C677.461 515.49 681.271 515.7 684.728 517.072C688.186 518.445 691.102 520.905 693.038 524.082V524.082L696.99 530.626C697.611 531.65 698.483 532.498 699.524 533.091C700.564 533.684 701.738 534.002 702.935 534.016H710.585C714.319 533.996 717.954 535.226 720.91 537.508C723.866 539.791 725.974 542.996 726.899 546.614C727.621 549.174 727.744 551.866 727.261 554.481H727.297Z" fill="white"/><path id="Fill-24" fill-rule="evenodd" clip-rule="evenodd" d="M276.081 249.006C280.688 244.403 283.827 238.538 285.1 232.151C286.372 225.765 285.722 219.144 283.231 213.127C280.741 207.111 276.521 201.968 271.107 198.349C265.693 194.731 259.327 192.799 252.815 192.799C246.303 192.799 239.938 194.731 234.524 198.349C229.11 201.968 224.89 207.111 222.4 213.127C219.909 219.144 219.259 225.765 220.532 232.151C221.805 238.538 224.943 244.403 229.55 249.006C235.729 255.159 244.095 258.614 252.815 258.614C261.536 258.614 269.902 255.159 276.081 249.006V249.006ZM222.299 195.168C228.341 189.13 236.038 185.018 244.417 183.353C252.795 181.688 261.48 182.545 269.371 185.815C277.263 189.085 284.008 194.622 288.753 201.725C293.499 208.828 296.032 217.179 296.032 225.721C296.032 234.264 293.499 242.615 288.753 249.718C284.008 256.821 277.263 262.357 269.371 265.628C261.48 268.898 252.795 269.755 244.417 268.09C236.038 266.425 228.341 262.313 222.299 256.274C218.285 252.263 215.101 247.5 212.929 242.258C210.757 237.015 209.638 231.396 209.638 225.721C209.638 220.047 210.757 214.428 212.929 209.185C215.101 203.943 218.285 199.18 222.299 195.168Z" fill="#F26037"/><g id="Group-28"><path id="Fill-26" fill-rule="evenodd" clip-rule="evenodd" d="M449.121 -0.0224725C453.373 0.408347 457.403 2.09064 460.699 4.81161C463.995 7.53259 466.41 11.17 467.638 15.2637C468.867 19.3575 468.854 23.7236 467.601 27.8099C466.348 31.8962 463.911 35.5191 460.598 38.2202C457.286 40.9214 453.248 42.5795 448.993 42.9848C444.738 43.3901 440.458 42.5244 436.695 40.4972C432.932 38.47 429.855 35.3724 427.853 31.5962C425.851 27.82 425.014 23.5348 425.447 19.2827C426.038 13.588 428.86 8.35921 433.297 4.741C437.734 1.12279 443.424 -0.590031 449.121 -0.0224725" fill="white"/></g><path id="Fill-29" fill-rule="evenodd" clip-rule="evenodd" d="M431.756 515.78C427.858 515.373 423.94 516.33 420.67 518.488C417.399 520.647 414.979 523.873 413.821 527.617C412.663 531.361 412.84 535.391 414.321 539.019C415.802 542.647 418.496 545.648 421.943 547.512C425.391 549.376 429.377 549.986 433.224 549.239C437.071 548.492 440.54 546.433 443.038 543.414C445.537 540.395 446.911 536.603 446.926 532.685C446.942 528.766 445.597 524.963 443.121 521.925C441.731 520.196 440.01 518.762 438.059 517.707C436.107 516.652 433.964 515.997 431.756 515.78V515.78ZM411.998 514.62C412.614 514.004 413.267 513.424 413.974 512.807C416.559 510.689 419.539 509.105 422.741 508.147C425.943 507.189 429.302 506.875 432.626 507.224V507.224C438.35 507.819 443.703 510.341 447.805 514.377C451.906 518.414 454.515 523.724 455.201 529.438C455.888 535.152 454.612 540.929 451.583 545.823C448.554 550.716 443.952 554.435 438.532 556.368C433.112 558.302 427.195 558.336 421.753 556.465C416.311 554.594 411.666 550.929 408.581 546.071C405.496 541.212 404.154 535.45 404.775 529.729C405.396 524.008 407.942 518.667 411.998 514.584V514.62Z" fill="#E64360"/><path id="Fill-31" fill-rule="evenodd" clip-rule="evenodd" d="M407.085 300.614C408.897 300.799 410.613 301.517 412.017 302.677C413.421 303.837 414.449 305.387 414.972 307.132C415.494 308.876 415.488 310.737 414.953 312.478C414.418 314.218 413.379 315.762 411.968 316.912C410.556 318.063 408.835 318.769 407.022 318.941C405.21 319.114 403.386 318.745 401.783 317.881C400.179 317.018 398.868 315.698 398.015 314.089C397.161 312.481 396.805 310.655 396.989 308.843C397.111 307.64 397.469 306.472 398.043 305.407C398.617 304.342 399.394 303.401 400.332 302.637C401.27 301.872 402.349 301.3 403.508 300.953C404.666 300.606 405.882 300.491 407.085 300.614" fill="white"/><path id="Fill-33" fill-rule="evenodd" clip-rule="evenodd" d="M475.804 606.923C474.518 605.634 473.642 603.994 473.288 602.208C472.934 600.422 473.117 598.571 473.815 596.889C474.512 595.208 475.692 593.77 477.206 592.759C478.72 591.748 480.5 591.208 482.32 591.208C484.141 591.208 485.921 591.748 487.435 592.759C488.949 593.77 490.13 595.208 490.827 596.889C491.525 598.571 491.708 600.422 491.354 602.208C491 603.994 490.124 605.634 488.837 606.923C487.108 608.649 484.764 609.618 482.32 609.618C479.877 609.618 477.534 608.649 475.804 606.923" fill="white"/><path id="Fill-35" fill-rule="evenodd" clip-rule="evenodd" d="M100.793 449.037C99.5046 447.75 98.6267 446.109 98.2705 444.322C97.9143 442.536 98.0961 440.684 98.7927 439C99.4894 437.317 100.669 435.878 102.184 434.866C103.699 433.854 105.48 433.313 107.301 433.313C109.123 433.313 110.903 433.854 112.418 434.866C113.933 435.878 115.113 437.317 115.81 439C116.506 440.684 116.688 442.536 116.332 444.322C115.976 446.109 115.097 447.75 113.809 449.037C112.08 450.757 109.74 451.723 107.301 451.723C104.862 451.723 102.522 450.757 100.793 449.037" fill="white"/><path id="Fill-37" fill-rule="evenodd" clip-rule="evenodd" d="M956.133 224.172C953.592 221.639 951.86 218.409 951.156 214.891C950.452 211.373 950.808 207.726 952.178 204.41C953.548 201.095 955.871 198.26 958.854 196.266C961.836 194.272 965.343 193.207 968.931 193.207C972.518 193.207 976.024 194.272 979.007 196.266C981.989 198.26 984.313 201.095 985.683 204.41C987.053 207.726 987.409 211.373 986.705 214.891C986.001 218.409 984.269 221.639 981.728 224.172C978.33 227.559 973.728 229.461 968.931 229.461C964.133 229.461 959.531 227.559 956.133 224.172" fill="#F26037"/><g id="Group-41"><path id="Fill-39" fill-rule="evenodd" clip-rule="evenodd" d="M1027.52 460.874C1027.37 462.352 1026.91 463.785 1026.19 465.082C1025.46 466.379 1024.48 467.513 1023.29 468.414L1019.38 471.496C1018.76 471.977 1018.28 472.609 1017.98 473.329C1017.68 474.049 1017.57 474.835 1017.66 475.611L1018.22 480.578C1018.52 483.008 1018.01 485.47 1016.77 487.582C1015.53 489.695 1013.63 491.341 1011.36 492.269C1009.1 493.196 1006.59 493.352 1004.22 492.714C1001.86 492.075 999.77 490.677 998.278 488.735L995.196 484.819C994.732 484.185 994.109 483.684 993.39 483.366C992.671 483.048 991.882 482.924 991.1 483.007L986.133 483.569C983.704 483.861 981.246 483.347 979.137 482.107C977.028 480.866 975.385 478.967 974.46 476.702C973.535 474.437 973.381 471.931 974.019 469.569C974.658 467.207 976.054 465.12 977.994 463.629L981.909 460.547C982.519 460.063 982.996 459.431 983.294 458.711C983.592 457.991 983.703 457.207 983.614 456.432L983.052 451.466C982.754 449.035 983.264 446.574 984.503 444.461C985.741 442.349 987.64 440.702 989.907 439.775C992.174 438.847 994.682 438.691 997.046 439.33C999.41 439.968 1001.5 441.366 1002.99 443.309L1006.07 447.224C1006.55 447.841 1007.18 448.325 1007.89 448.627C1008.61 448.929 1009.4 449.039 1010.17 448.946L1015.14 448.384C1017.55 448.066 1020.01 448.571 1022.11 449.817C1024.21 451.063 1025.82 452.978 1026.7 455.254C1027.42 456.97 1027.71 458.84 1027.52 460.692" fill="#E64360"/></g><path id="Fill-42" fill-rule="evenodd" clip-rule="evenodd" d="M81.3073 363.206C81.2216 364.002 80.975 364.773 80.5824 365.471C80.1898 366.169 79.6593 366.78 79.0233 367.266L76.9207 368.916C76.5925 369.177 76.3358 369.516 76.1741 369.903C76.0125 370.29 75.9512 370.711 75.9962 371.128L76.3042 373.792C76.4513 375.089 76.1716 376.399 75.5072 377.522C74.8428 378.646 73.83 379.522 72.6226 380.018C71.4153 380.514 70.0791 380.603 68.8167 380.271C67.5543 379.939 66.4349 379.205 65.6277 378.179L63.9597 376.076C63.7013 375.745 63.3623 375.487 62.975 375.325C62.5877 375.163 62.1652 375.103 61.7482 375.152L59.0836 375.46C57.7837 375.609 56.4708 375.328 55.3449 374.662C54.2191 373.995 53.3419 372.979 52.8472 371.768C52.3524 370.556 52.2675 369.217 52.6047 367.952C52.9418 366.688 53.6829 365.569 54.7152 364.765L56.8178 363.115C57.1459 362.855 57.4027 362.515 57.5643 362.129C57.726 361.742 57.7873 361.321 57.7422 360.904L57.4342 358.239C57.2823 356.941 57.5584 355.628 58.2211 354.501C58.8838 353.374 59.8966 352.494 61.1052 351.995C62.3138 351.497 63.6523 351.407 64.9169 351.739C66.1815 352.071 67.3029 352.806 68.1108 353.834L69.7607 355.955C70.0213 356.283 70.3604 356.54 70.7471 356.702C71.1338 356.864 71.5554 356.925 71.9721 356.88L74.6367 356.572C75.9284 356.401 77.2401 356.664 78.3656 357.32C79.4912 357.977 80.3667 358.989 80.8541 360.197C81.2431 361.124 81.3987 362.132 81.3073 363.134" fill="#F26037"/><path id="Fill-44" fill-rule="evenodd" clip-rule="evenodd" d="M749.83 434.354C749.748 435.116 749.512 435.854 749.139 436.524C748.765 437.193 748.26 437.781 747.654 438.251L745.625 439.828C745.306 440.079 745.057 440.407 744.902 440.782C744.746 441.156 744.689 441.564 744.736 441.967L745.026 444.523C745.171 445.77 744.905 447.031 744.267 448.113C743.63 449.195 742.656 450.039 741.495 450.517C740.334 450.995 739.048 451.081 737.833 450.761C736.619 450.441 735.542 449.734 734.766 448.746L733.171 446.716C732.924 446.398 732.599 446.149 732.228 445.993C731.856 445.838 731.451 445.781 731.051 445.828L728.494 446.118C727.249 446.25 725.995 445.974 724.92 445.332C723.846 444.69 723.008 443.716 722.534 442.557C722.06 441.399 721.975 440.117 722.292 438.906C722.608 437.695 723.309 436.619 724.289 435.84L726.301 434.245C726.617 433.995 726.864 433.67 727.019 433.299C727.174 432.928 727.233 432.524 727.189 432.124L726.9 429.568C726.755 428.321 727.021 427.06 727.659 425.978C728.296 424.896 729.27 424.052 730.431 423.574C731.592 423.096 732.877 423.01 734.092 423.33C735.306 423.649 736.383 424.357 737.159 425.344L738.755 427.375C739.002 427.693 739.327 427.942 739.698 428.097C740.07 428.253 740.475 428.31 740.875 428.263L743.432 427.973C744.293 427.882 745.162 427.984 745.979 428.273C746.795 428.561 747.537 429.028 748.15 429.639C748.763 430.251 749.232 430.991 749.523 431.807C749.813 432.622 749.918 433.492 749.83 434.354" fill="#F26037"/><path id="Fill-46" fill-rule="evenodd" clip-rule="evenodd" d="M401.702 341.309C401.588 342.024 401.324 342.707 400.927 343.314C400.53 343.92 400.01 344.435 399.399 344.825L397.459 346.076C397.078 346.332 396.789 346.703 396.635 347.136C396.481 347.568 396.471 348.039 396.605 348.478C396.739 348.917 397.011 349.301 397.381 349.573C397.75 349.846 398.197 349.993 398.656 349.992H400.958C401.84 349.972 402.712 350.18 403.49 350.596C404.268 351.012 404.925 351.622 405.399 352.366L406.65 354.306C406.906 354.687 407.277 354.976 407.71 355.13C408.142 355.283 408.613 355.294 409.052 355.16C409.491 355.026 409.875 354.754 410.147 354.385C410.42 354.016 410.566 353.568 410.565 353.109V350.807C410.544 349.925 410.752 349.052 411.168 348.274C411.584 347.496 412.194 346.838 412.94 346.366L414.88 345.097C415.266 344.846 415.559 344.476 415.716 344.043C415.872 343.61 415.884 343.138 415.749 342.698C415.614 342.258 415.339 341.874 414.967 341.604C414.594 341.333 414.144 341.192 413.683 341.2H411.381C410.499 341.219 409.627 341.011 408.849 340.595C408.071 340.179 407.413 339.57 406.94 338.825L405.689 336.886C405.438 336.5 405.068 336.207 404.635 336.05C404.202 335.893 403.73 335.881 403.29 336.016C402.85 336.151 402.466 336.426 402.196 336.799C401.925 337.171 401.784 337.622 401.792 338.082V340.384C401.819 340.692 401.819 341.001 401.792 341.309H401.702ZM393.49 347.001C393.607 346.289 393.875 345.61 394.275 345.01C394.675 344.41 395.199 343.902 395.81 343.52L397.75 342.269C398.05 342.072 398.297 341.803 398.467 341.486C398.638 341.17 398.728 340.816 398.729 340.457V338.155C398.692 337.03 399.027 335.925 399.683 335.011C400.338 334.096 401.277 333.424 402.354 333.097C403.428 332.751 404.586 332.776 405.645 333.167C406.703 333.558 407.599 334.293 408.19 335.254L409.46 337.194C409.655 337.496 409.923 337.745 410.24 337.916C410.557 338.087 410.912 338.175 411.272 338.173H413.574C414.7 338.155 415.8 338.504 416.709 339.167C417.619 339.83 418.288 340.771 418.616 341.848C418.944 342.925 418.912 344.079 418.526 345.136C418.139 346.193 417.42 347.096 416.475 347.708L414.535 348.958C414.233 349.153 413.987 349.422 413.819 349.74C413.651 350.057 413.566 350.412 413.574 350.771V353.073C413.592 354.198 413.243 355.299 412.58 356.209C411.917 357.118 410.976 357.787 409.899 358.115C408.823 358.442 407.668 358.41 406.611 358.024C405.554 357.638 404.651 356.918 404.039 355.973V355.973L402.789 354.034C402.593 353.731 402.325 353.483 402.008 353.312C401.691 353.141 401.336 353.052 400.976 353.055H398.674C397.915 353.061 397.164 352.902 396.472 352.59C395.781 352.277 395.165 351.817 394.669 351.243C394.172 350.669 393.807 349.994 393.597 349.265C393.387 348.535 393.338 347.769 393.453 347.019L393.49 347.001Z" fill="#F26037"/><path id="Fill-51" fill-rule="evenodd" clip-rule="evenodd" d="M252.1 349.284C251.619 349.231 251.179 348.99 250.876 348.612C250.574 348.235 250.433 347.753 250.486 347.272C250.539 346.791 250.781 346.351 251.159 346.049C251.536 345.746 252.018 345.606 252.499 345.659C256.761 346.008 260.998 346.613 265.188 347.472C265.427 347.511 265.657 347.598 265.862 347.727C266.068 347.857 266.245 348.027 266.383 348.226C266.522 348.426 266.619 348.651 266.669 348.889C266.719 349.127 266.721 349.372 266.674 349.611C266.628 349.849 266.536 350.076 266.401 350.279C266.266 350.481 266.092 350.654 265.889 350.787C265.687 350.921 265.458 351.012 265.219 351.056C264.981 351.1 264.735 351.095 264.498 351.043C260.425 350.248 256.31 349.691 252.172 349.375H252.027L252.1 349.284ZM226.885 351.188C226.527 351.137 226.193 350.98 225.925 350.738C225.657 350.496 225.468 350.179 225.381 349.828C225.319 349.593 225.304 349.349 225.338 349.109C225.373 348.868 225.454 348.637 225.579 348.429C225.704 348.222 225.871 348.041 226.067 347.898C226.263 347.755 226.485 347.653 226.722 347.598C230.924 346.588 235.206 345.945 239.52 345.677C239.758 345.659 239.996 345.688 240.223 345.763C240.45 345.838 240.66 345.956 240.841 346.112C241.022 346.267 241.171 346.457 241.278 346.67C241.386 346.883 241.451 347.116 241.469 347.354C241.486 347.592 241.456 347.831 241.382 348.058C241.307 348.285 241.189 348.494 241.033 348.675C240.877 348.856 240.688 349.005 240.475 349.112C240.261 349.22 240.029 349.285 239.791 349.302C235.691 349.544 231.621 350.151 227.628 351.115C227.382 351.16 227.13 351.16 226.885 351.115V351.188ZM205.314 363.097C205.033 363.057 204.767 362.951 204.535 362.789C204.335 362.653 204.164 362.478 204.032 362.275C203.901 362.072 203.811 361.845 203.769 361.606C203.727 361.368 203.732 361.124 203.786 360.888C203.84 360.652 203.941 360.429 204.082 360.233C205.683 357.997 207.686 356.079 209.991 354.577C211.447 353.638 212.954 352.779 214.505 352.003C214.719 351.885 214.955 351.811 215.199 351.786C215.442 351.761 215.688 351.786 215.922 351.859C216.155 351.931 216.372 352.051 216.558 352.21C216.744 352.369 216.897 352.563 217.006 352.783C217.118 352.996 217.186 353.23 217.207 353.471C217.227 353.711 217.2 353.953 217.125 354.183C217.051 354.413 216.932 354.625 216.774 354.808C216.617 354.991 216.425 355.141 216.208 355.248C214.773 355.974 213.375 356.772 212.021 357.641C210.106 358.895 208.444 360.5 207.126 362.372C206.925 362.653 206.647 362.871 206.326 362.999C206.005 363.128 205.654 363.162 205.314 363.097ZM200.963 386.952C200.595 386.901 200.252 386.738 199.979 386.485C199.707 386.232 199.519 385.902 199.441 385.538C198.502 381.434 198.36 377.188 199.024 373.031L199.133 372.432C199.172 372.196 199.258 371.97 199.385 371.767C199.513 371.565 199.678 371.389 199.874 371.251C200.069 371.113 200.291 371.015 200.524 370.962C200.758 370.91 200.999 370.904 201.235 370.946V370.946C201.475 370.983 201.704 371.068 201.911 371.196C202.117 371.323 202.296 371.491 202.436 371.688C202.577 371.886 202.675 372.11 202.727 372.347C202.78 372.584 202.784 372.828 202.74 373.067C202.74 373.23 202.74 373.411 202.74 373.592C202.143 377.29 202.26 381.069 203.084 384.722C203.137 384.957 203.143 385.2 203.102 385.437C203.06 385.674 202.972 385.9 202.843 386.103C202.713 386.305 202.543 386.48 202.345 386.616C202.147 386.753 201.924 386.848 201.688 386.898C201.46 386.933 201.228 386.933 201 386.898L200.963 386.952ZM264.897 412.022C264.491 411.966 264.116 411.774 263.833 411.478C263.55 411.182 263.376 410.798 263.339 410.39C263.316 410.151 263.342 409.909 263.414 409.679C263.486 409.45 263.603 409.237 263.758 409.053C263.913 408.869 264.103 408.718 264.318 408.608C264.532 408.498 264.766 408.433 265.006 408.414C269.367 408.087 273.751 408.306 278.057 409.067C278.298 409.098 278.531 409.177 278.74 409.299C278.95 409.422 279.133 409.585 279.278 409.779C279.424 409.974 279.528 410.195 279.586 410.431C279.645 410.667 279.655 410.912 279.617 411.152C279.581 411.389 279.499 411.617 279.375 411.823C279.251 412.028 279.087 412.207 278.893 412.349C278.699 412.491 278.478 412.592 278.245 412.648C278.011 412.704 277.769 412.713 277.532 412.674C273.519 411.968 269.433 411.755 265.368 412.04C265.212 412.067 265.053 412.067 264.897 412.04V412.022ZM214.486 407.762C214.111 407.707 213.762 407.536 213.489 407.272C210.325 404.313 207.498 401.011 205.061 397.429C204.926 397.229 204.832 397.004 204.785 396.767C204.739 396.53 204.74 396.286 204.789 396.05C204.838 395.814 204.934 395.589 205.07 395.39C205.207 395.192 205.382 395.022 205.585 394.892C205.787 394.751 206.016 394.653 206.256 394.603C206.497 394.554 206.745 394.553 206.986 394.602C207.226 394.652 207.455 394.749 207.657 394.889C207.858 395.029 208.03 395.209 208.16 395.417C210.432 398.775 213.077 401.864 216.045 404.626C216.217 404.795 216.355 404.996 216.448 405.219C216.542 405.441 216.591 405.68 216.591 405.922C216.591 406.163 216.542 406.402 216.448 406.625C216.355 406.848 216.217 407.049 216.045 407.218C215.839 407.437 215.582 407.601 215.298 407.696C215.013 407.791 214.709 407.813 214.414 407.762H214.486ZM296.511 423.623C296.235 423.583 295.973 423.481 295.743 423.324C295.514 423.167 295.324 422.959 295.187 422.717C294.995 422.38 294.917 421.99 294.963 421.605C295.008 421.22 295.176 420.86 295.441 420.578C294.261 417.968 292.098 415.929 289.423 414.904C289.197 414.816 288.991 414.684 288.817 414.515C288.643 414.347 288.505 414.145 288.41 413.922C288.315 413.699 288.266 413.459 288.266 413.217C288.265 412.974 288.314 412.734 288.408 412.511C288.499 412.286 288.634 412.082 288.806 411.91C288.977 411.738 289.182 411.603 289.407 411.512C289.632 411.42 289.872 411.375 290.115 411.379C290.357 411.382 290.596 411.434 290.818 411.532C292.832 412.33 294.651 413.552 296.149 415.117C297.648 416.681 298.791 418.55 299.501 420.596C299.659 420.999 299.668 421.446 299.525 421.855C299.382 422.264 299.097 422.608 298.722 422.825L297.707 423.405C297.343 423.607 296.92 423.678 296.511 423.605V423.623ZM240.136 417.351C239.77 417.301 239.429 417.141 239.157 416.891C238.885 416.642 238.695 416.315 238.613 415.955C238.557 415.719 238.549 415.475 238.589 415.236C238.63 414.997 238.718 414.768 238.848 414.564C238.978 414.359 239.147 414.183 239.347 414.045C239.546 413.907 239.772 413.811 240.009 413.762L245.701 412.547C248.021 412.058 250.215 411.587 252.354 411.097C252.591 411.035 252.838 411.023 253.08 411.059C253.322 411.095 253.554 411.181 253.763 411.309C253.971 411.438 254.151 411.608 254.292 411.808C254.433 412.008 254.532 412.235 254.583 412.475C254.639 412.709 254.648 412.953 254.609 413.191C254.57 413.429 254.483 413.657 254.355 413.861C254.226 414.065 254.059 414.242 253.862 414.381C253.664 414.519 253.441 414.617 253.205 414.668C251.048 415.158 248.837 415.629 246.499 416.118L240.843 417.333C240.609 417.379 240.369 417.379 240.136 417.333V417.351ZM272.221 429.55C271.785 429.489 271.387 429.271 271.1 428.938C270.813 428.604 270.658 428.178 270.662 427.738C270.662 427.257 270.852 426.796 271.192 426.456C271.532 426.116 271.994 425.925 272.475 425.925C276.564 425.851 280.633 425.353 284.619 424.439C284.855 424.377 285.101 424.363 285.342 424.398C285.584 424.434 285.815 424.517 286.023 424.644C286.231 424.771 286.412 424.939 286.554 425.137C286.696 425.335 286.796 425.56 286.849 425.798C286.905 426.032 286.915 426.274 286.877 426.511C286.839 426.748 286.754 426.975 286.627 427.179C286.501 427.383 286.335 427.56 286.14 427.699C285.944 427.839 285.723 427.938 285.489 427.992C281.254 428.964 276.929 429.493 272.584 429.569C272.469 429.587 272.352 429.587 272.238 429.569L272.221 429.55ZM258.716 428.626C254.764 428.005 250.858 427.121 247.024 425.979C246.795 425.91 246.581 425.797 246.395 425.645C246.209 425.493 246.055 425.307 245.941 425.095C245.827 424.884 245.756 424.653 245.732 424.414C245.708 424.175 245.731 423.934 245.8 423.705C245.869 423.475 245.983 423.261 246.135 423.075C246.286 422.889 246.473 422.735 246.684 422.622C246.896 422.508 247.127 422.437 247.366 422.413C247.605 422.389 247.846 422.412 248.076 422.481C252.036 423.668 256.076 424.564 260.166 425.164V425.164C260.647 425.236 261.079 425.496 261.368 425.887C261.657 426.278 261.779 426.768 261.707 427.248C261.635 427.729 261.374 428.161 260.983 428.45C260.592 428.739 260.103 428.861 259.622 428.789L258.698 428.644L258.716 428.626ZM216.425 425.653C216.051 425.606 215.701 425.444 215.423 425.189C215.146 424.933 214.955 424.597 214.877 424.228C214.799 423.859 214.839 423.475 214.99 423.129C215.141 422.784 215.395 422.494 215.719 422.3C219.249 420.216 223 418.532 226.903 417.278C225.779 416.626 224.692 415.937 223.604 415.23C223.404 415.1 223.231 414.931 223.096 414.734C222.96 414.536 222.866 414.314 222.817 414.08C222.768 413.846 222.766 413.604 222.811 413.369C222.855 413.134 222.947 412.91 223.079 412.711C223.21 412.504 223.382 412.326 223.585 412.187C223.788 412.049 224.016 411.953 224.257 411.906C224.497 411.858 224.745 411.86 224.985 411.911C225.225 411.962 225.452 412.062 225.653 412.203C229.126 414.45 232.762 416.438 236.529 418.149C236.75 418.246 236.948 418.387 237.114 418.563C237.279 418.739 237.408 418.946 237.493 419.172C237.577 419.399 237.616 419.64 237.606 419.881C237.596 420.122 237.538 420.359 237.435 420.578C237.334 420.8 237.189 421 237.009 421.165C236.829 421.33 236.618 421.456 236.388 421.538C236.158 421.619 235.913 421.653 235.669 421.637C235.426 421.622 235.188 421.557 234.97 421.448C233.321 420.686 231.689 419.889 230.112 419.037C230.066 419.378 229.923 419.699 229.702 419.962C229.48 420.225 229.189 420.42 228.861 420.523C224.976 421.708 221.246 423.351 217.749 425.418C217.37 425.649 216.918 425.733 216.48 425.653H216.425ZM201.326 445.049C201.165 445.017 201.006 444.969 200.855 444.904C200.631 444.811 200.429 444.675 200.259 444.502C200.089 444.33 199.955 444.126 199.866 443.901C199.776 443.676 199.733 443.436 199.738 443.194C199.742 442.952 199.796 442.714 199.894 442.493C201.643 438.59 203.761 434.863 206.22 431.363C206.355 431.159 206.53 430.984 206.733 430.85C206.937 430.715 207.167 430.622 207.407 430.578C207.647 430.534 207.894 430.54 208.133 430.593C208.371 430.647 208.596 430.749 208.794 430.892C208.994 431.025 209.166 431.197 209.299 431.397C209.433 431.597 209.526 431.822 209.571 432.058C209.617 432.294 209.614 432.537 209.565 432.773C209.516 433.008 209.42 433.231 209.283 433.43C206.964 436.745 204.961 440.271 203.302 443.961C203.144 444.339 202.862 444.652 202.504 444.85C202.145 445.047 201.73 445.118 201.326 445.049ZM198.19 469.339C197.814 469.289 197.462 469.122 197.186 468.862C196.909 468.602 196.722 468.262 196.649 467.889C195.778 463.611 195.649 459.214 196.269 454.892C196.339 454.411 196.597 453.978 196.986 453.687C197.375 453.396 197.864 453.272 198.344 453.342C198.825 453.412 199.258 453.67 199.549 454.059C199.84 454.448 199.964 454.937 199.894 455.418C199.327 459.329 199.443 463.31 200.239 467.182C200.286 467.418 200.285 467.661 200.238 467.897C200.19 468.132 200.096 468.356 199.961 468.555C199.827 468.754 199.653 468.925 199.452 469.056C199.25 469.188 199.024 469.278 198.788 469.321C198.573 469.367 198.351 469.367 198.136 469.321L198.19 469.339ZM324.843 504.234C324.591 504.198 324.35 504.111 324.135 503.977C323.919 503.842 323.734 503.664 323.592 503.454C321.344 500.155 317.194 498.65 314.094 498.016C313.856 497.965 313.631 497.867 313.43 497.729C313.23 497.59 313.059 497.414 312.927 497.209C312.66 496.796 312.567 496.294 312.671 495.814C312.774 495.333 313.064 494.913 313.477 494.646C313.89 494.379 314.392 494.287 314.873 494.391C319.553 495.138 323.769 497.648 326.656 501.406C326.792 501.604 326.888 501.827 326.937 502.063C326.986 502.298 326.989 502.541 326.943 502.777C326.898 503.013 326.805 503.238 326.671 503.438C326.538 503.639 326.366 503.81 326.166 503.943C325.772 504.191 325.302 504.288 324.843 504.215V504.234ZM289.315 500.3C288.989 500.254 288.682 500.12 288.426 499.912C288.171 499.705 287.976 499.431 287.864 499.122C287.78 498.897 287.742 498.658 287.752 498.418C287.761 498.178 287.819 497.943 287.92 497.725C288.021 497.508 288.164 497.313 288.341 497.151C288.518 496.989 288.726 496.864 288.952 496.783C293.049 495.311 297.31 494.343 301.641 493.901C301.883 493.868 302.13 493.885 302.366 493.95C302.601 494.015 302.822 494.127 303.013 494.28C303.205 494.432 303.363 494.622 303.479 494.837C303.595 495.052 303.667 495.289 303.689 495.533C303.714 495.772 303.691 496.014 303.622 496.245C303.552 496.476 303.436 496.69 303.283 496.876C303.129 497.061 302.94 497.215 302.727 497.326C302.513 497.438 302.28 497.506 302.04 497.527C297.999 497.934 294.024 498.835 290.202 500.209C289.894 500.292 289.569 500.292 289.26 500.209L289.315 500.3ZM210.299 490.693C209.897 490.634 209.527 490.443 209.247 490.149C206.182 487.077 203.51 483.636 201.29 479.907C201.167 479.7 201.087 479.469 201.055 479.231C201.022 478.992 201.037 478.748 201.1 478.515C201.162 478.282 201.271 478.064 201.418 477.874C201.566 477.683 201.75 477.524 201.96 477.406C202.17 477.278 202.405 477.194 202.649 477.16C202.892 477.125 203.14 477.14 203.377 477.205C203.615 477.269 203.837 477.381 204.029 477.534C204.222 477.687 204.382 477.878 204.499 478.094C206.573 481.562 209.062 484.764 211.912 487.629C212.082 487.798 212.217 487.998 212.309 488.219C212.401 488.44 212.449 488.677 212.449 488.916C212.449 489.156 212.401 489.392 212.309 489.613C212.217 489.834 212.082 490.035 211.912 490.203C211.707 490.404 211.457 490.553 211.183 490.638C210.909 490.723 210.618 490.742 210.335 490.693H210.299ZM230.674 505.484C230.464 505.444 230.262 505.371 230.075 505.267C226.312 503.243 222.679 500.985 219.199 498.505C219.002 498.367 218.834 498.19 218.706 497.985C218.578 497.781 218.493 497.553 218.454 497.315C218.415 497.077 218.424 496.834 218.481 496.599C218.537 496.365 218.64 496.144 218.782 495.949C218.938 495.76 219.129 495.605 219.346 495.492C219.563 495.379 219.801 495.311 220.045 495.293C220.288 495.274 220.534 495.305 220.766 495.384C220.998 495.462 221.21 495.587 221.393 495.75C224.764 498.142 228.281 500.322 231.924 502.276C232.137 502.387 232.326 502.538 232.48 502.723C232.634 502.907 232.749 503.12 232.82 503.349C232.891 503.579 232.916 503.82 232.893 504.059C232.87 504.298 232.799 504.53 232.686 504.741C232.507 505.082 232.225 505.357 231.879 505.526C231.534 505.696 231.143 505.751 230.764 505.684L230.674 505.484ZM269.737 515.291C269.488 515.25 269.248 515.164 269.03 515.037C268.825 514.911 268.647 514.746 268.507 514.55C268.366 514.355 268.266 514.134 268.212 513.899C268.158 513.664 268.152 513.421 268.193 513.184C268.233 512.947 268.321 512.72 268.45 512.518C270.858 508.813 273.931 505.587 277.514 503.001C277.706 502.847 277.928 502.733 278.166 502.668C278.404 502.602 278.653 502.586 278.897 502.62C279.141 502.654 279.376 502.737 279.587 502.865C279.798 502.993 279.981 503.163 280.124 503.363C280.268 503.556 280.373 503.775 280.433 504.008C280.492 504.241 280.504 504.483 280.469 504.721C280.434 504.959 280.351 505.187 280.226 505.393C280.102 505.599 279.938 505.778 279.743 505.919C276.54 508.25 273.794 511.151 271.641 514.475C271.451 514.773 271.178 515.009 270.856 515.154C270.534 515.299 270.177 515.346 269.828 515.291H269.737ZM315.852 524.064C315.521 524.02 315.208 523.884 314.949 523.673C314.69 523.462 314.494 523.183 314.384 522.868C314.301 522.641 314.265 522.4 314.276 522.158C314.288 521.917 314.349 521.68 314.453 521.462C314.558 521.244 314.705 521.049 314.886 520.889C315.067 520.729 315.279 520.607 315.508 520.53C319.054 519.251 322.03 516.751 323.9 513.478C324.012 513.262 324.167 513.071 324.355 512.916C324.543 512.76 324.76 512.645 324.993 512.575C325.227 512.506 325.472 512.484 325.714 512.512C325.956 512.539 326.19 512.615 326.402 512.735C326.618 512.846 326.808 512.998 326.964 513.184C327.119 513.37 327.236 513.585 327.307 513.816C327.378 514.048 327.401 514.291 327.377 514.532C327.352 514.773 327.28 515.006 327.164 515.218C324.864 519.288 321.177 522.396 316.777 523.974C316.48 524.076 316.163 524.107 315.852 524.064V524.064ZM254.021 515.545L253.677 515.454C250.341 514.24 246.897 512.934 243.453 511.557L241.785 510.868C241.561 510.779 241.357 510.645 241.185 510.476C241.013 510.306 240.876 510.104 240.783 509.881C240.691 509.658 240.643 509.419 240.644 509.178C240.644 508.936 240.694 508.697 240.789 508.475C240.882 508.252 241.017 508.049 241.19 507.88C241.362 507.71 241.567 507.576 241.792 507.487C242.016 507.397 242.256 507.354 242.498 507.358C242.74 507.363 242.978 507.416 243.199 507.514L244.831 508.167C248.239 509.545 251.646 510.832 254.927 512.028C255.157 512.105 255.368 512.228 255.549 512.388C255.73 512.548 255.877 512.743 255.982 512.961C256.086 513.178 256.147 513.415 256.159 513.657C256.171 513.898 256.134 514.139 256.052 514.366C255.908 514.772 255.624 515.113 255.252 515.329C254.88 515.544 254.444 515.621 254.021 515.545V515.545ZM278.257 522.796H278.13C274.214 521.889 270.046 520.765 265.786 519.478C265.552 519.414 265.332 519.303 265.142 519.152C264.951 519.002 264.793 518.814 264.676 518.601C264.559 518.388 264.487 518.154 264.463 517.912C264.438 517.67 264.463 517.426 264.534 517.194C264.602 516.959 264.718 516.74 264.872 516.551C265.027 516.361 265.219 516.205 265.435 516.092C265.652 515.978 265.89 515.91 266.134 515.891C266.378 515.871 266.623 515.902 266.855 515.98C271.042 517.267 275.12 518.354 278.963 519.243C279.444 519.336 279.869 519.617 280.142 520.024C280.416 520.43 280.517 520.928 280.423 521.409C280.329 521.89 280.048 522.313 279.642 522.587C279.236 522.861 278.738 522.962 278.257 522.868V522.796ZM290.71 525.17C290.472 525.136 290.243 525.055 290.036 524.932C289.829 524.809 289.649 524.646 289.505 524.453C289.361 524.261 289.257 524.041 289.198 523.808C289.139 523.575 289.125 523.333 289.16 523.095C289.194 522.857 289.276 522.628 289.399 522.421C289.522 522.214 289.684 522.034 289.877 521.89C290.069 521.746 290.289 521.641 290.522 521.582C290.755 521.523 290.997 521.51 291.235 521.545C295.318 522.115 299.44 522.363 303.562 522.288C303.808 522.276 304.053 522.313 304.284 522.399C304.514 522.485 304.725 522.616 304.903 522.786C305.081 522.955 305.222 523.159 305.319 523.385C305.416 523.611 305.466 523.855 305.465 524.101C305.465 524.581 305.274 525.043 304.934 525.382C304.594 525.722 304.133 525.913 303.653 525.913C299.331 525.985 295.01 525.724 290.728 525.134L290.71 525.17ZM264.897 539.146C264.497 539.092 264.126 538.906 263.843 538.617C263.561 538.328 263.383 537.952 263.339 537.551C262.84 533.581 262.889 529.562 263.484 525.605L263.647 524.626C263.688 524.392 263.775 524.168 263.903 523.967C264.031 523.766 264.198 523.593 264.394 523.456C264.589 523.32 264.809 523.224 265.042 523.172C265.274 523.121 265.515 523.116 265.75 523.158C265.991 523.195 266.222 523.28 266.429 523.409C266.637 523.538 266.816 523.707 266.957 523.907C267.097 524.107 267.196 524.333 267.247 524.572C267.298 524.811 267.3 525.057 267.253 525.297C267.253 525.587 267.145 525.877 267.091 526.185C266.564 529.789 266.522 533.447 266.964 537.061C266.992 537.301 266.971 537.544 266.904 537.776C266.836 538.007 266.723 538.223 266.571 538.41C266.419 538.598 266.231 538.753 266.019 538.867C265.806 538.981 265.573 539.051 265.333 539.074C265.171 539.101 265.005 539.101 264.843 539.074L264.897 539.146ZM272.584 562.639C272.292 562.6 272.014 562.49 271.774 562.32C271.534 562.149 271.338 561.923 271.205 561.66C269.246 557.873 267.567 553.947 266.184 549.913C266.108 549.685 266.078 549.444 266.097 549.204C266.115 548.964 266.181 548.73 266.29 548.515C266.4 548.301 266.552 548.111 266.736 547.956C266.92 547.8 267.133 547.683 267.362 547.611C267.592 547.529 267.836 547.494 268.079 547.509C268.322 547.523 268.56 547.586 268.778 547.694C268.997 547.803 269.191 547.954 269.349 548.139C269.508 548.324 269.627 548.539 269.701 548.771C271.029 552.637 272.641 556.4 274.523 560.028C274.631 560.242 274.696 560.476 274.714 560.715C274.732 560.954 274.702 561.195 274.626 561.422C274.55 561.65 274.43 561.86 274.272 562.041C274.115 562.222 273.922 562.369 273.707 562.475C273.359 562.649 272.966 562.706 272.584 562.639V562.639ZM286.414 583.557C285.959 583.482 285.546 583.243 285.254 582.886C282.517 579.515 279.979 576.071 277.695 572.645C277.56 572.444 277.467 572.219 277.421 571.982C277.374 571.745 277.375 571.502 277.424 571.265C277.473 571.029 277.569 570.805 277.706 570.606C277.842 570.407 278.018 570.237 278.221 570.107C278.423 569.967 278.652 569.87 278.893 569.822C279.135 569.773 279.384 569.775 279.625 569.826C279.865 569.876 280.093 569.976 280.295 570.118C280.496 570.26 280.666 570.441 280.795 570.651C283.006 573.968 285.489 577.34 288.136 580.621C288.286 580.806 288.399 581.019 288.467 581.248C288.535 581.477 288.557 581.718 288.531 581.955C288.506 582.193 288.434 582.423 288.32 582.632C288.205 582.842 288.05 583.027 287.864 583.176C287.659 583.332 287.426 583.446 287.177 583.511C286.928 583.576 286.669 583.592 286.414 583.557V583.557ZM303.798 601.684C303.439 601.632 303.105 601.475 302.837 601.231C299.665 598.403 296.583 595.412 293.665 592.367C293.495 592.198 293.36 591.998 293.268 591.777C293.176 591.556 293.129 591.319 293.129 591.08C293.129 590.841 293.176 590.604 293.268 590.383C293.36 590.162 293.495 589.961 293.665 589.793C293.84 589.62 294.049 589.485 294.278 589.396C294.508 589.307 294.753 589.265 294.999 589.273C295.245 589.282 295.486 589.34 295.709 589.445C295.931 589.55 296.13 589.699 296.293 589.883C299.139 592.856 302.148 595.775 305.247 598.53C305.55 598.791 305.758 599.144 305.84 599.534C305.921 599.925 305.871 600.332 305.697 600.692C305.524 601.051 305.237 601.343 304.88 601.523C304.524 601.702 304.117 601.759 303.725 601.684H303.798ZM323.828 616.929C323.569 616.892 323.322 616.799 323.103 616.657C319.586 614.427 316.051 611.98 312.607 609.406C312.415 609.262 312.255 609.081 312.134 608.874C312.012 608.667 311.934 608.438 311.902 608.2C311.87 607.962 311.885 607.721 311.947 607.489C312.009 607.257 312.116 607.04 312.263 606.85C312.409 606.652 312.594 606.486 312.806 606.361C313.019 606.237 313.254 606.157 313.498 606.126C313.743 606.096 313.99 606.115 314.227 606.184C314.463 606.252 314.683 606.368 314.873 606.524C318.226 609.08 321.671 611.473 325.097 613.648C325.302 613.774 325.48 613.939 325.621 614.135C325.761 614.33 325.862 614.552 325.916 614.786C325.97 615.021 325.976 615.264 325.935 615.501C325.894 615.738 325.806 615.965 325.677 616.168C325.487 616.465 325.214 616.701 324.892 616.846C324.57 616.991 324.213 617.039 323.864 616.983L323.828 616.929ZM346.486 628.186C346.378 628.203 346.269 628.203 346.161 628.186C342.109 626.744 338.15 625.055 334.305 623.128C334.086 623.024 333.891 622.877 333.729 622.695C333.568 622.514 333.445 622.302 333.367 622.072C333.289 621.842 333.258 621.599 333.276 621.357C333.294 621.115 333.361 620.879 333.472 620.663C333.579 620.442 333.73 620.245 333.915 620.085C334.101 619.924 334.318 619.803 334.552 619.728C334.785 619.653 335.032 619.627 335.276 619.651C335.521 619.674 335.758 619.747 335.973 619.865C339.668 621.728 343.476 623.357 347.375 624.742C347.606 624.817 347.819 624.938 348.002 625.097C348.185 625.257 348.334 625.451 348.441 625.669C348.547 625.887 348.609 626.124 348.622 626.367C348.635 626.609 348.599 626.852 348.517 627.08C348.373 627.485 348.09 627.826 347.718 628.042C347.346 628.258 346.909 628.335 346.486 628.258V628.186ZM359.175 631.521H358.741C358.503 631.483 358.274 631.398 358.069 631.272C357.863 631.146 357.685 630.98 357.544 630.785C357.403 630.59 357.301 630.369 357.245 630.134C357.189 629.9 357.18 629.656 357.218 629.418C357.256 629.18 357.341 628.952 357.467 628.747C357.593 628.541 357.758 628.363 357.954 628.221C358.149 628.08 358.371 627.979 358.605 627.923C358.84 627.867 359.082 627.858 359.32 627.896V627.896H359.72C363.595 628.538 367.535 628.685 371.447 628.331C371.69 628.301 371.936 628.32 372.171 628.387C372.406 628.454 372.625 628.569 372.815 628.723C373.004 628.877 373.161 629.068 373.275 629.284C373.389 629.5 373.457 629.737 373.478 629.98C373.503 630.22 373.48 630.462 373.41 630.693C373.341 630.923 373.225 631.138 373.071 631.324C372.918 631.509 372.729 631.662 372.515 631.774C372.302 631.886 372.069 631.954 371.829 631.974C367.596 632.354 363.333 632.195 359.14 631.503" fill="#D4183F"/><path id="Fill-53" fill-rule="evenodd" clip-rule="evenodd" d="M664.904 155.145C664.612 155.234 664.353 155.41 664.164 155.65C663.974 155.89 663.862 156.182 663.842 156.487C663.823 156.792 663.896 157.096 664.054 157.358C664.211 157.62 664.444 157.828 664.723 157.954C666.264 158.625 667.823 159.332 669.346 160.093C669.7 160.264 670.107 160.29 670.48 160.164C670.852 160.039 671.161 159.773 671.34 159.423C671.512 159.066 671.538 158.656 671.413 158.281C671.287 157.905 671.021 157.593 670.669 157.41C669.092 156.631 667.497 155.888 665.902 155.217C665.58 155.101 665.227 155.101 664.904 155.217" fill="#D4183F"/><path id="Fill-55" fill-rule="evenodd" clip-rule="evenodd" d="M632.639 351.205C629.649 349.604 627.385 346.919 626.313 343.701C626.14 343.108 626.019 342.502 625.951 341.888C625.918 341.54 626.007 341.191 626.202 340.901C626.397 340.61 626.685 340.396 627.02 340.293H627.291C627.685 340.257 628.077 340.378 628.382 340.629C628.687 340.88 628.881 341.241 628.923 341.634C628.972 342.07 629.057 342.5 629.177 342.921C630.037 345.396 631.806 347.45 634.125 348.668C634.468 348.868 634.717 349.196 634.819 349.58C634.921 349.963 634.868 350.372 634.67 350.716C634.473 351.057 634.148 351.306 633.767 351.408C633.386 351.51 632.981 351.457 632.639 351.26" fill="#D4183F"/><path id="Fill-57" fill-rule="evenodd" clip-rule="evenodd" d="M648.682 406.928C648.87 406.619 649.167 406.392 649.515 406.294C649.721 406.23 649.936 406.212 650.149 406.24C650.362 406.268 650.566 406.342 650.748 406.457C651.08 406.672 651.314 407.01 651.399 407.397C651.484 407.784 651.412 408.189 651.201 408.523L649.914 410.553C648.427 412.819 646.905 415.103 645.328 417.315C645.216 417.475 645.074 417.61 644.909 417.714C644.744 417.818 644.559 417.888 644.367 417.92C644.174 417.953 643.978 417.946 643.788 417.901C643.598 417.856 643.419 417.774 643.261 417.659C642.94 417.433 642.721 417.088 642.653 416.701C642.585 416.314 642.673 415.915 642.898 415.593C644.439 413.418 645.944 411.17 647.394 408.922C647.829 408.27 648.265 407.599 648.682 406.928" fill="#D4183F"/><path id="Fill-59" fill-rule="evenodd" clip-rule="evenodd" d="M639.001 425.689C637.805 427.194 636.572 428.698 635.376 430.166C634.071 430.166 632.766 430.166 631.461 430.166C633.262 428.1 635.014 425.985 636.718 423.822C636.908 423.585 637.167 423.414 637.46 423.332C637.69 423.261 637.935 423.247 638.172 423.292C638.409 423.336 638.631 423.437 638.82 423.586C639.128 423.835 639.326 424.196 639.37 424.589C639.414 424.983 639.301 425.378 639.056 425.689" fill="#D4183F"/><path id="Fill-61" fill-rule="evenodd" clip-rule="evenodd" d="M731.594 250.257C731.549 249.907 731.63 249.552 731.823 249.257C732.015 248.961 732.307 248.744 732.645 248.643C732.723 248.635 732.802 248.635 732.88 248.643C733.273 248.602 733.668 248.715 733.979 248.959C734.29 249.202 734.494 249.557 734.548 249.949C734.983 253.465 735.255 257.036 735.364 260.553C735.364 260.947 735.207 261.325 734.929 261.604C734.65 261.883 734.272 262.039 733.878 262.039C733.484 262.039 733.105 261.883 732.826 261.604C732.548 261.325 732.391 260.947 732.391 260.553C732.282 257.145 732.01 253.683 731.594 250.239" fill="#D4183F"/><path id="Fill-63" fill-rule="evenodd" clip-rule="evenodd" d="M731.431 278.008C731.758 275.67 732.011 273.295 732.174 270.921C732.195 270.617 732.31 270.328 732.501 270.091C732.693 269.854 732.952 269.682 733.244 269.598C733.418 269.57 733.596 269.57 733.77 269.598C734.163 269.63 734.526 269.815 734.784 270.114C735.042 270.412 735.172 270.799 735.147 271.193C734.984 273.64 734.73 276.105 734.386 278.443C734.223 279.531 734.041 280.619 733.86 281.688C733.827 281.881 733.756 282.065 733.651 282.231C733.547 282.396 733.41 282.539 733.25 282.652C733.09 282.765 732.91 282.845 732.719 282.888C732.528 282.931 732.33 282.936 732.138 282.903C731.945 282.869 731.76 282.798 731.595 282.694C731.43 282.589 731.286 282.453 731.174 282.293C731.061 282.133 730.981 281.953 730.938 281.762C730.895 281.571 730.89 281.373 730.923 281.181C731.104 280.129 731.268 279.06 731.431 278.008Z" fill="#D4183F"/><path id="Fill-65" fill-rule="evenodd" clip-rule="evenodd" d="M664.705 369.042C664.742 368.757 664.861 368.489 665.048 368.27C665.234 368.051 665.481 367.891 665.757 367.81C665.96 367.764 666.17 367.764 666.373 367.81C666.766 367.864 667.123 368.071 667.364 368.387C667.605 368.703 667.711 369.101 667.66 369.495C667.148 373.041 666.348 376.539 665.267 379.955C665.149 380.332 664.886 380.647 664.536 380.831C664.186 381.014 663.777 381.051 663.4 380.934C663.022 380.816 662.707 380.553 662.523 380.203C662.34 379.853 662.303 379.444 662.421 379.066C663.45 375.804 664.214 372.464 664.705 369.078" fill="#D4183F"/><path id="Fill-67" fill-rule="evenodd" clip-rule="evenodd" d="M728.567 291.241C728.638 291.001 728.769 290.782 728.946 290.605C729.123 290.428 729.342 290.298 729.582 290.226C729.853 290.135 730.146 290.135 730.416 290.226C730.602 290.279 730.775 290.367 730.927 290.486C731.078 290.606 731.205 290.754 731.299 290.922C731.394 291.091 731.454 291.276 731.476 291.468C731.499 291.659 731.484 291.853 731.431 292.039C730.441 295.45 729.26 298.802 727.896 302.081C727.745 302.447 727.454 302.737 727.089 302.888C726.724 303.04 726.313 303.039 725.948 302.888C725.583 302.737 725.292 302.446 725.141 302.081C724.99 301.715 724.989 301.305 725.141 300.939C726.458 297.759 727.602 294.509 728.567 291.205" fill="#D4183F"/><path id="Fill-69" fill-rule="evenodd" clip-rule="evenodd" d="M658.723 388.638C658.81 388.44 658.94 388.264 659.103 388.123C659.266 387.982 659.458 387.879 659.666 387.822C660 387.706 660.365 387.706 660.7 387.822C661.058 387.988 661.337 388.288 661.476 388.658C661.615 389.027 661.602 389.437 661.442 389.798C660.064 392.861 658.488 395.961 656.639 399.278C656.543 399.45 656.416 399.6 656.262 399.722C656.109 399.844 655.932 399.935 655.744 399.989C655.555 400.043 655.358 400.059 655.163 400.036C654.968 400.014 654.78 399.953 654.609 399.858C654.438 399.763 654.287 399.635 654.165 399.481C654.043 399.328 653.952 399.152 653.898 398.963C653.844 398.775 653.828 398.577 653.851 398.383C653.873 398.188 653.933 397.999 654.028 397.828C655.841 394.583 657.364 391.556 658.723 388.565" fill="#D4183F"/><path id="Fill-71" fill-rule="evenodd" clip-rule="evenodd" d="M704.023 185.344C703.876 185.474 703.706 185.574 703.521 185.638C703.336 185.703 703.14 185.729 702.945 185.718C702.749 185.706 702.558 185.656 702.383 185.57C702.207 185.484 702.049 185.364 701.92 185.217C699.618 182.643 697.189 180.142 694.669 177.804C694.531 177.665 694.421 177.502 694.347 177.321C694.272 177.141 694.233 176.947 694.233 176.752C694.233 176.557 694.272 176.364 694.347 176.183C694.421 176.003 694.531 175.839 694.669 175.701C694.852 175.506 695.084 175.362 695.34 175.284C695.59 175.209 695.857 175.201 696.112 175.261C696.366 175.322 696.6 175.448 696.79 175.628C699.345 178.021 701.848 180.577 704.204 183.242C704.334 183.388 704.434 183.558 704.498 183.743C704.562 183.928 704.589 184.124 704.578 184.319C704.566 184.515 704.516 184.706 704.43 184.882C704.344 185.058 704.223 185.215 704.077 185.344" fill="#D4183F"/><path id="Fill-73" fill-rule="evenodd" clip-rule="evenodd" d="M688.906 170.824C688.787 170.979 688.638 171.109 688.468 171.207C688.299 171.304 688.11 171.366 687.916 171.39C687.722 171.413 687.525 171.398 687.337 171.344C687.149 171.291 686.973 171.2 686.82 171.078C684.083 168.957 681.237 166.963 678.355 165.15C678.02 164.938 677.782 164.601 677.694 164.214C677.606 163.827 677.674 163.421 677.884 163.084C678.083 162.784 678.377 162.561 678.718 162.449C678.925 162.39 679.141 162.375 679.354 162.406C679.566 162.438 679.771 162.514 679.951 162.631C682.906 164.443 685.842 166.546 688.652 168.721C688.963 168.968 689.164 169.327 689.211 169.72C689.259 170.114 689.149 170.511 688.906 170.824" fill="#D4183F"/><path id="Fill-75" fill-rule="evenodd" clip-rule="evenodd" d="M716.349 202.293C716.184 202.399 716 202.471 715.807 202.504C715.614 202.538 715.417 202.533 715.226 202.489C715.035 202.445 714.854 202.363 714.696 202.249C714.537 202.134 714.403 201.989 714.301 201.822C712.488 198.885 710.513 196.003 708.464 193.248C708.347 193.091 708.262 192.912 708.214 192.722C708.166 192.532 708.156 192.335 708.185 192.141C708.213 191.948 708.28 191.761 708.381 191.593C708.482 191.426 708.615 191.279 708.772 191.163C708.916 191.06 709.075 190.98 709.243 190.927C709.535 190.836 709.848 190.84 710.138 190.938C710.428 191.035 710.68 191.222 710.857 191.471C712.96 194.281 714.971 197.236 716.838 200.245C716.941 200.411 717.01 200.596 717.041 200.789C717.072 200.983 717.064 201.18 717.019 201.37C716.973 201.561 716.891 201.74 716.776 201.898C716.661 202.057 716.516 202.191 716.349 202.293" fill="#D4183F"/><path id="Fill-77" fill-rule="evenodd" clip-rule="evenodd" d="M725.648 221.09C725.28 221.24 724.868 221.239 724.501 221.086C724.134 220.933 723.843 220.641 723.69 220.274C722.403 217.084 720.953 213.912 719.394 210.848C719.303 210.674 719.248 210.483 719.232 210.287C719.216 210.09 719.239 209.893 719.3 209.706C719.361 209.519 719.458 209.345 719.586 209.196C719.714 209.047 719.87 208.925 720.046 208.836L720.3 208.727C720.643 208.612 721.017 208.625 721.351 208.766C721.685 208.906 721.955 209.163 722.113 209.489C723.726 212.643 725.213 215.888 726.536 219.15C726.61 219.331 726.647 219.525 726.647 219.72C726.646 219.916 726.606 220.109 726.531 220.289C726.455 220.47 726.344 220.633 726.205 220.77C726.066 220.908 725.902 221.016 725.721 221.09" fill="#D4183F"/><path id="Fill-79" fill-rule="evenodd" clip-rule="evenodd" d="M732.755 239.416C732.808 239.611 732.821 239.814 732.793 240.014C732.765 240.213 732.696 240.405 732.592 240.578C732.487 240.75 732.35 240.9 732.186 241.017C732.022 241.134 731.836 241.217 731.639 241.26C731.442 241.303 731.237 241.306 731.039 241.268C730.841 241.23 730.654 241.152 730.487 241.038C730.32 240.925 730.178 240.779 730.069 240.61C729.961 240.44 729.887 240.25 729.854 240.051C729.256 237.332 728.549 234.613 727.751 231.875C727.588 231.277 727.389 230.661 727.225 230.063C727.225 230.063 727.225 230.063 727.225 229.972C727.173 229.787 727.158 229.592 727.18 229.401C727.203 229.209 727.263 229.024 727.357 228.855C727.452 228.687 727.578 228.539 727.73 228.42C727.882 228.3 728.055 228.212 728.241 228.159V228.159C728.615 228.068 729.011 228.121 729.347 228.31C729.683 228.498 729.936 228.807 730.053 229.175C730.253 229.791 730.434 230.407 730.615 230.987C731.431 233.743 732.157 236.57 732.755 239.362" fill="#D4183F"/><path id="Fill-81" fill-rule="evenodd" clip-rule="evenodd" d="M721.534 309.55C721.818 309.464 722.121 309.465 722.404 309.553C722.688 309.642 722.939 309.813 723.124 310.045C723.309 310.277 723.421 310.56 723.444 310.856C723.468 311.152 723.402 311.448 723.255 311.707C721.523 314.836 719.611 317.862 717.528 320.77C717.409 320.928 717.259 321.062 717.089 321.162C716.918 321.263 716.73 321.329 716.534 321.357C716.337 321.385 716.138 321.374 715.946 321.324C715.754 321.275 715.574 321.188 715.416 321.069C715.257 320.95 715.123 320.801 715.023 320.631C714.922 320.46 714.857 320.271 714.829 320.075C714.801 319.879 714.812 319.68 714.862 319.488C714.911 319.296 714.997 319.116 715.117 318.957C717.129 316.168 718.975 313.263 720.645 310.256C720.842 309.918 721.159 309.665 721.534 309.55" fill="#D4183F"/><path id="Fill-83" fill-rule="evenodd" clip-rule="evenodd" d="M653.902 354.904C650.316 355.044 646.725 354.862 643.171 354.36C642.977 354.333 642.79 354.268 642.621 354.169C642.452 354.07 642.303 353.938 642.185 353.781C642.067 353.624 641.982 353.446 641.933 353.256C641.884 353.066 641.874 352.868 641.902 352.674C641.94 352.391 642.061 352.126 642.247 351.91C642.434 351.694 642.679 351.538 642.954 351.459C643.168 351.404 643.392 351.404 643.606 351.459C646.979 351.937 650.389 352.113 653.794 351.985C654.188 351.971 654.571 352.113 654.86 352.382C655.149 352.651 655.32 353.023 655.334 353.417C655.349 353.811 655.206 354.195 654.937 354.484C654.669 354.773 654.297 354.943 653.902 354.958" fill="#D4183F"/><path id="Fill-85" fill-rule="evenodd" clip-rule="evenodd" d="M660.391 340.493C660.075 340.727 659.679 340.827 659.289 340.773C658.9 340.719 658.546 340.514 658.306 340.203C656.364 337.547 653.896 335.319 651.055 333.659C650.803 333.512 650.599 333.295 650.467 333.034C650.336 332.773 650.283 332.48 650.316 332.19C650.349 331.9 650.466 331.625 650.652 331.4C650.837 331.175 651.085 331.009 651.364 330.922C651.556 330.866 651.757 330.848 651.956 330.87C652.155 330.891 652.348 330.952 652.524 331.049C655.739 332.908 658.54 335.406 660.753 338.39C660.988 338.709 661.09 339.108 661.036 339.5C660.981 339.893 660.776 340.249 660.464 340.493" fill="#D4183F"/><path id="Fill-87" fill-rule="evenodd" clip-rule="evenodd" d="M641.702 331.194C640.06 331.205 638.425 331.437 636.844 331.882V331.882C635.367 332.312 633.975 332.993 632.729 333.895C632.412 334.135 632.012 334.239 631.618 334.185C631.223 334.131 630.867 333.922 630.626 333.604C630.386 333.287 630.281 332.887 630.336 332.493C630.39 332.099 630.599 331.742 630.917 331.502C632.441 330.379 634.154 329.538 635.974 329.018V329.018C637.825 328.488 639.74 328.213 641.666 328.203C641.876 328.179 642.089 328.201 642.29 328.265C642.491 328.33 642.677 328.436 642.834 328.577C642.992 328.719 643.118 328.891 643.204 329.084C643.291 329.277 643.335 329.487 643.335 329.698C643.335 329.91 643.291 330.119 643.204 330.312C643.118 330.505 642.992 330.678 642.834 330.819C642.677 330.96 642.491 331.066 642.29 331.131C642.089 331.195 641.876 331.217 641.666 331.194" fill="#D4183F"/><path id="Fill-89" fill-rule="evenodd" clip-rule="evenodd" d="M694.271 342.468C691.254 344.367 688.117 346.069 684.881 347.562C684.528 347.682 684.145 347.666 683.803 347.519C683.461 347.372 683.186 347.104 683.03 346.766C682.875 346.428 682.85 346.044 682.961 345.689C683.072 345.334 683.31 345.032 683.63 344.843C686.748 343.398 689.775 341.764 692.694 339.949L693.057 339.767C693.37 339.679 693.704 339.694 694.008 339.812C694.312 339.93 694.569 340.143 694.742 340.42C694.951 340.754 695.019 341.157 694.93 341.542C694.842 341.926 694.605 342.259 694.271 342.468" fill="#D4183F"/><path id="Fill-91" fill-rule="evenodd" clip-rule="evenodd" d="M710.82 328.982C708.386 331.569 705.782 333.991 703.026 336.232C702.718 336.4 702.36 336.453 702.016 336.382C701.673 336.311 701.366 336.121 701.149 335.846C700.932 335.57 700.819 335.227 700.831 334.876C700.843 334.526 700.979 334.191 701.214 333.93C703.875 331.757 706.388 329.407 708.736 326.897C708.921 326.708 709.152 326.57 709.407 326.498C709.721 326.422 710.051 326.45 710.347 326.578C710.643 326.706 710.889 326.927 711.049 327.207C711.209 327.488 711.273 327.813 711.232 328.133C711.191 328.453 711.046 328.751 710.82 328.982" fill="#D4183F"/><path id="Fill-93" fill-rule="evenodd" clip-rule="evenodd" d="M674.911 351.387C672.391 352.166 669.818 352.819 667.262 353.345C667.611 355.099 667.858 356.873 668.004 358.656C668.022 358.852 668 359.051 667.94 359.239C667.879 359.427 667.782 359.601 667.654 359.751C667.525 359.902 667.369 360.025 667.193 360.114C667.016 360.203 666.824 360.255 666.627 360.269C666.431 360.286 666.233 360.264 666.046 360.204C665.859 360.143 665.686 360.046 665.537 359.918C665.389 359.789 665.268 359.632 665.181 359.456C665.094 359.28 665.043 359.088 665.032 358.891C664.891 357.199 664.648 355.516 664.306 353.852C663.948 353.866 663.598 353.748 663.321 353.521C663.044 353.294 662.859 352.973 662.802 352.619C662.749 352.301 662.8 351.974 662.947 351.687C663.094 351.4 663.329 351.168 663.618 351.024V350.897C663.436 350.281 663.219 349.647 663.019 349.085C662.951 348.9 662.92 348.704 662.929 348.508C662.938 348.311 662.985 348.119 663.07 347.941C663.154 347.764 663.274 347.605 663.421 347.474C663.568 347.344 663.739 347.244 663.926 347.181V347.181C664.289 347.076 664.679 347.113 665.015 347.285C665.352 347.457 665.61 347.75 665.738 348.106C665.974 348.777 666.192 349.447 666.392 350.136L666.5 350.499C669.023 350.005 671.516 349.37 673.968 348.595V348.595C674.348 348.482 674.757 348.525 675.105 348.713C675.454 348.902 675.713 349.222 675.826 349.601C675.939 349.981 675.897 350.39 675.708 350.739C675.52 351.087 675.2 351.346 674.82 351.459" fill="#D4183F"/></g></g></g></svg>